<svg id="Layer_2" data-name="Layer 2" xmlns="http://www.w3.org/2000/svg" viewBox="0 0 493.87 733.64">
    <defs>
        <style>.cls-1{fill:none;stroke:#fff;stroke-miterlimit:10;stroke-width:4px;}</style>
    </defs>
    <path class="cls-1" d="M314,208l11,14s-60,60-98,60c-7.72,0-15.77-2.08-23.21-3.9-13.43-3.28-26.68-7.38-39.91-11.4-15.36-4.67-35.74-13.16-50.21-1.23a59.88,59.88,0,0,0-6.43,6A42.28,42.28,0,0,0,97,291.29c-5,24.83,13.2,48.81,29,65.71,0,1-12,14-12,14-1.7-1.66-3.31-3.42-4.89-5.18q-6-6.69-11.35-13.94A157,157,0,0,1,85,331.59a97.89,97.89,0,0,1-10.15-28.67,48.62,48.62,0,0,1-.59-5c-.66-10.2,2-20.81,5.47-30.34,1-2.87,2.2-5.7,3.48-8.47a108.21,108.21,0,0,1,11.9-19.67,121.38,121.38,0,0,1,13.5-15A129,129,0,0,1,121.22,214c3.94-2.86,7.64-5.76,12.2-7.62a66.23,66.23,0,0,1,14.35-3.76,94.5,94.5,0,0,1,23.62-1.22c13.08,1.15,26,5.44,38.57,8.87q6.79,1.84,13.56,3.75c13.77,3.88,27.54,7.8,41.16,12.2,9.56,3.09,18.69,1,27.5-3.16l1.42-.69a82.77,82.77,0,0,0,14.08-9C309.86,211.67,312,209.87,314,208Z" transform="translate(-72.13 -198.17)" />
    <path class="cls-1" d="M267,289.5l-66,48v102s-101-11-65,117l20-10s-12-26,4-44,37-9,40-3v143l-12,10,12,14,62-49,1-301,14-11Z" transform="translate(-72.13 -198.17)" />
    <path class="cls-1" d="M285,294.92V627l-19.66,14.61,12.1,16.13L348,604.29V271l11.16-7.36,18.13-12c5.51-3.64,10.82-7.66,16.56-11,1.84-1.07,3.73-2.06,5.66-3a68.46,68.46,0,0,1,18.91-5.4c6.44-.91,13.12-1.33,19.52-.12.81.15,1.62.33,2.42.53a30,30,0,0,1,15.76,9.44c5.31,6.22,7.65,14.38,8.51,22.38.19,1.79.34,3.61.37,5.41,1,63,0,161,0,161l-74,56V334H372V685l-4.12-1.89C364,681.42,360,679.9,356,678.49a235.14,235.14,0,0,0-42.77-10.65,227.81,227.81,0,0,0-61.33-1.19,212.51,212.51,0,0,0-71.62,21.89c-22,11.29-39.5,28.16-52.9,49l-.87,1.37c-10.79,17.2-17.9,36.65-19.77,56.92A123.57,123.57,0,0,0,111,840.69,94.74,94.74,0,0,0,120,862.94c1,1.73,2.08,3.43,3.14,5.12s2.27,3.6,3.44,5.37c10.4,15.75,23.58,29.21,39.92,38.72,15.3,8.9,32.49,14.12,50,16.33a177.18,177.18,0,0,0,26.15,1.29c2.77-.06,30.3-1.33,30.3-2.77V906.5s-78,19-116-31-20-94-15-105,27-50,93-47,120,38,120,38,45-34,92-51,117-14,117-14v-19l-35-1V469.78l-62.13-18L529,406.65l.19-22,.39-46.06.35-40.25c.15-18.05-4.76-36-12.54-52.22C511,232.65,502,220.2,489.92,211.25c-13-9.63-29.57-12-45.32-10.79-17,1.3-33.83,5.27-48.66,13.9-8.18,4.76-15.59,10.69-23.12,16.4s-15.54,11.33-23.31,17l-7.07,5.17L311.9,275.26l-21.78,15.92Z" transform="translate(-72.13 -198.17)" />
    <path class="cls-1" d="M451,465.5l15,6v75s-15,20-75,0v-36Z" transform="translate(-72.13 -198.17)" />
    <path class="cls-1" d="M391,566.5v51s40-18,75,0v-51S434,581.5,391,566.5Z" transform="translate(-72.13 -198.17)" />
    <path class="cls-1" d="M391,637.5v54s7,0,22,11c12-6,17-11,53-20v-45S431,618.5,391,637.5Z" transform="translate(-72.13 -198.17)" />
</svg>